<svg width="87" height="97" viewBox="0 0 87 97" fill="none" xmlns="http://www.w3.org/2000/svg">
<g style="mix-blend-mode:multiply">
<path fill-rule="evenodd" clip-rule="evenodd" d="M24.3023 0C10.8805 0 0 9.59464 0 21.4302V57.5232C0 68.2076 8.86656 77.0653 20.4651 78.6876V93.6162C20.4651 94.8641 21.244 96.0105 22.4917 96.5997C23.7394 97.1885 25.2533 97.1239 26.4309 96.4314L56.1619 78.9534H85.6977C99.1197 78.9534 110 69.359 110 57.5232V21.4302C110 9.59464 99.1197 0 85.6977 0H24.3023ZM55 20.3023C50.2296 20.3023 46.0465 23.9322 46.0465 28.7616C46.0465 30.6303 44.3285 32.1453 42.2093 32.1453C40.0901 32.1453 38.3721 30.6303 38.3721 28.7616C38.3721 20.5096 45.6423 13.5349 55 13.5349C64.3577 13.5349 71.6279 20.5096 71.6279 28.7616C71.6279 35.8444 66.2717 41.9861 58.8372 43.5845V46.2441C58.8372 48.1128 57.1192 49.6278 55 49.6278C52.8808 49.6278 51.1628 48.1128 51.1628 46.2441V40.6046C51.1628 38.7358 52.8808 37.2209 55 37.2209C59.7704 37.2209 63.9535 33.591 63.9535 28.7616C63.9535 23.9322 59.7704 20.3023 55 20.3023ZM58.8372 57.5232C58.8372 55.6545 57.1192 54.1395 55 54.1395C52.8808 54.1395 51.1628 55.6545 51.1628 57.5232V62.0348C51.1628 63.9035 52.8808 65.4185 55 65.4185C57.1192 65.4185 58.8372 63.9035 58.8372 62.0348V57.5232Z" fill="#DDDDDD"/>
</g>
</svg>
