<svg preserveAspectRatio="none" width="100%" height="100%" overflow="visible" style="display: block;" viewBox="0 0 147 130" fill="none" xmlns="http://www.w3.org/2000/svg">
<g id="Vector" style="mix-blend-mode:color-burn">
<path d="M130.013 8.20625C128.38 3.4125 123.807 0 118.417 0H28.5833C23.1933 0 18.7017 3.4125 16.9867 8.20625L0.898333 54.275C0.326666 55.9813 0 57.7688 0 59.6375V117.812C0 124.556 5.47167 130 12.25 130C19.0283 130 24.5 124.556 24.5 117.812V113.75H122.5V117.812C122.5 124.475 127.972 130 134.75 130C141.447 130 147 124.556 147 117.812V59.6375C147 57.85 146.673 55.9813 146.102 54.275L130.013 8.20625ZM28.5833 89.375C21.805 89.375 16.3333 83.9312 16.3333 77.1875C16.3333 70.4438 21.805 65 28.5833 65C35.3617 65 40.8333 70.4438 40.8333 77.1875C40.8333 83.9312 35.3617 89.375 28.5833 89.375ZM118.417 89.375C111.638 89.375 106.167 83.9312 106.167 77.1875C106.167 70.4438 111.638 65 118.417 65C125.195 65 130.667 70.4438 130.667 77.1875C130.667 83.9312 125.195 89.375 118.417 89.375ZM16.3333 48.75L26.705 17.7125C27.8483 14.4625 30.9517 12.1875 34.4633 12.1875H112.537C116.048 12.1875 119.152 14.4625 120.295 17.7125L130.667 48.75H16.3333Z" fill="#D3D3D3"/>
</g>
</svg>
