<svg width="24" height="19" viewBox="0 0 24 19" fill="none" xmlns="http://www.w3.org/2000/svg">
<path fill-rule="evenodd" clip-rule="evenodd" d="M0.292453 9.73165C0.105186 9.54415 0 9.28998 0 9.02498C0 8.75998 0.105186 8.50582 0.292453 8.31832L8.29245 0.318316C8.384 0.220066 8.4944 0.141264 8.61707 0.0866089C8.73974 0.0319519 8.87215 0.00256538 9.00642 0.000196457C9.14069 -0.00217247 9.27407 0.0225258 9.39858 0.0728207C9.5231 0.123114 9.63621 0.197975 9.73117 0.292933C9.82613 0.387892 9.90099 0.501003 9.95128 0.625521C10.0016 0.750038 10.0263 0.88341 10.0239 1.01768C10.0215 1.15195 9.99215 1.28437 9.9375 1.40704C9.88284 1.5297 9.80404 1.6401 9.70579 1.73165L3.41245 8.02498L22.3325 8.02498C22.5977 8.02498 22.852 8.13034 23.0396 8.31788C23.2271 8.50541 23.3325 8.75977 23.3325 9.02498C23.3325 9.2902 23.2271 9.54455 23.0396 9.73209C22.852 9.91963 22.5977 10.025 22.3325 10.025L3.41245 10.025L9.70579 16.3183C9.80404 16.4099 9.88284 16.5203 9.9375 16.6429C9.99215 16.7656 10.0215 16.898 10.0239 17.0323C10.0263 17.1666 10.0016 17.2999 9.95128 17.4244C9.90099 17.549 9.82613 17.6621 9.73117 17.757C9.63621 17.852 9.5231 17.9269 9.39858 17.9771C9.27407 18.0274 9.14069 18.0521 9.00642 18.0498C8.87215 18.0474 8.73974 18.018 8.61707 17.9634C8.4944 17.9087 8.384 17.8299 8.29245 17.7316L0.292453 9.73165Z" fill="#1E1E1E"/>
</svg>
