<svg preserveAspectRatio="none" width="100%" height="100%" overflow="visible" style="display: block;" viewBox="0 0 32 32" fill="none" xmlns="http://www.w3.org/2000/svg">
<g id="Icon">
<rect x="0.5" y="0.5" width="31" height="31" rx="15.5" stroke="var(--stroke-0, white)"/>
<path id="Vector" fill-rule="evenodd" clip-rule="evenodd" d="M25.0631 9.63988C25.3291 9.71134 25.5559 9.88546 25.6936 10.124C25.8314 10.3626 25.8688 10.646 25.7976 10.9121L22.754 22.2712C22.7226 22.4072 22.6642 22.5356 22.5822 22.6485C22.5002 22.7615 22.3962 22.8567 22.2766 22.9286C22.157 23.0006 22.0241 23.0476 21.8859 23.0671C21.7476 23.0865 21.6069 23.0779 21.4721 23.0418C21.3372 23.0057 21.2111 22.9428 21.1011 22.8568C20.9911 22.7709 20.8995 22.6636 20.8319 22.5415C20.7642 22.4194 20.7219 22.285 20.7073 22.1461C20.6928 22.0073 20.7063 21.867 20.7472 21.7335L23.1416 12.7977L6.11029 22.6307C5.87154 22.7685 5.58783 22.8059 5.32155 22.7345C5.05526 22.6632 4.82824 22.489 4.6904 22.2502C4.55256 22.0115 4.51521 21.7278 4.58656 21.4615C4.65791 21.1952 4.83212 20.9682 5.07086 20.8303L22.1021 10.9973L13.1663 8.60299C13.0303 8.57164 12.902 8.51322 12.789 8.4312C12.6761 8.34919 12.5808 8.24526 12.5089 8.12563C12.437 8.00599 12.3899 7.8731 12.3704 7.73487C12.351 7.59664 12.3596 7.45592 12.3957 7.32109C12.4319 7.18626 12.4948 7.06009 12.5807 6.9501C12.6667 6.84011 12.7739 6.74856 12.896 6.68091C13.0181 6.61326 13.1526 6.5709 13.2914 6.55635C13.4302 6.54179 13.5705 6.55535 13.704 6.59622L25.0631 9.63988Z" fill="var(--fill-0, white)"/>
</g>
</svg>
