<svg preserveAspectRatio="none" width="100%" height="100%" overflow="visible" style="display: block;" viewBox="0 0 32.399 32" fill="none" xmlns="http://www.w3.org/2000/svg">
<g id="Icon">
<g clip-path="url(#clip0_0_137)">
<path id="Vector" fill-rule="evenodd" clip-rule="evenodd" d="M25.3756 9.63988C25.645 9.71134 25.8746 9.88546 26.014 10.124C26.1534 10.3626 26.1913 10.646 26.1193 10.9121L23.0377 22.2712C23.006 22.4072 22.9468 22.5356 22.8638 22.6485C22.7807 22.7615 22.6755 22.8567 22.5544 22.9286C22.4332 23.0006 22.2987 23.0476 22.1587 23.0671C22.0188 23.0865 21.8763 23.0779 21.7398 23.0418C21.6033 23.0057 21.4755 22.9428 21.3642 22.8568C21.2528 22.7709 21.1601 22.6636 21.0916 22.5415C21.0232 22.4194 20.9803 22.285 20.9655 22.1461C20.9508 22.0073 20.9645 21.867 21.0059 21.7335L23.4301 12.7977L6.18647 22.6307C5.94475 22.7685 5.6575 22.8059 5.3879 22.7345C5.1183 22.6632 4.88844 22.489 4.74888 22.2502C4.60932 22.0115 4.57151 21.7278 4.64375 21.4615C4.71598 21.1952 4.89236 20.9682 5.13408 20.8303L22.3777 10.9973L13.3305 8.60299C13.1927 8.57164 13.0628 8.51322 12.9485 8.4312C12.8341 8.34919 12.7377 8.24526 12.6648 8.12563C12.592 8.00599 12.5444 7.8731 12.5247 7.73487C12.505 7.59664 12.5137 7.45592 12.5503 7.32109C12.5869 7.18626 12.6506 7.06009 12.7376 6.9501C12.8246 6.84011 12.9332 6.74856 13.0568 6.68091C13.1804 6.61326 13.3165 6.5709 13.4571 6.55635C13.5977 6.54179 13.7397 6.55535 13.8749 6.59622L25.3756 9.63988Z" fill="var(--fill-0, white)"/>
</g>
<rect x="0.5" y="0.5" width="31.399" height="31" rx="15.5" stroke="var(--stroke-0, white)"/>
</g>
<defs>
<clipPath id="clip0_0_137">
<rect width="32.399" height="32" rx="16" fill="white"/>
</clipPath>
</defs>
</svg>
