<svg width="24" height="24" viewBox="0 0 24 24" fill="none" xmlns="http://www.w3.org/2000/svg">
<path fill-rule="evenodd" clip-rule="evenodd" d="M23.7076 9.26835C23.8948 9.45585 24 9.71002 24 9.97502C24 10.24 23.8948 10.4942 23.7076 10.6817L15.7076 18.6817C15.616 18.7799 15.5056 18.8587 15.3829 18.9134C15.2603 18.968 15.1279 18.9974 14.9936 18.9998C14.8593 19.0022 14.7259 18.9775 14.6014 18.9272C14.4769 18.8769 14.3638 18.802 14.2688 18.7071C14.1739 18.6121 14.099 18.499 14.0487 18.3745C13.9984 18.25 13.9737 18.1166 13.9761 17.9823C13.9785 17.848 14.0079 17.7156 14.0625 17.593C14.1172 17.4703 14.196 17.3599 14.2942 17.2683L20.5876 10.975L1.6675 10.975C1.40229 10.975 1.14793 10.8697 0.960397 10.6821C0.77286 10.4946 0.6675 10.2402 0.6675 9.97502C0.6675 9.7098 0.77286 9.45545 0.960397 9.26791C1.14793 9.08037 1.40229 8.97502 1.6675 8.97502L20.5876 8.97502L14.2942 2.68168C14.196 2.59013 14.1172 2.47973 14.0625 2.35707C14.0079 2.2344 13.9785 2.10199 13.9761 1.96772C13.9737 1.83345 13.9984 1.70006 14.0487 1.57555C14.099 1.45103 14.1739 1.33793 14.2688 1.24296C14.3638 1.148 14.4769 1.07314 14.6014 1.02285C14.7259 0.972556 14.8593 0.947926 14.9936 0.950294C15.1279 0.95266 15.2603 0.982047 15.3829 1.03671C15.5056 1.09136 15.616 1.17016 15.7076 1.26835L23.7076 9.26835Z" fill="#1E1E1E"/>
</svg>
