<svg width="45" height="45" viewBox="0 0 45 45" fill="none" xmlns="http://www.w3.org/2000/svg">
<g clip-path="url(#clip0_1648_17884)">
<path d="M43.5938 36.5625C43.5937 36.9355 43.4456 37.2931 43.1818 37.5568C42.9181 37.8206 42.5605 37.9687 42.1875 37.9688H2.8125C2.43954 37.9688 2.08185 37.8206 1.81813 37.5569C1.55441 37.2931 1.40625 36.9355 1.40625 36.5625C1.40625 36.1895 1.55441 35.8319 1.81813 35.5681C2.08185 35.3044 2.43954 35.1562 2.8125 35.1562H42.1875C42.5605 35.1563 42.9181 35.3044 43.1818 35.5682C43.4456 35.8319 43.5937 36.1895 43.5938 36.5625ZM2.86572 17.258C2.78228 16.9634 2.79731 16.6496 2.90851 16.3643C3.01971 16.079 3.221 15.8378 3.48181 15.6773L21.7631 4.42732C21.9847 4.29095 22.2398 4.21875 22.5 4.21875C22.7602 4.21875 23.0153 4.29095 23.2369 4.42732L41.5182 15.6773C41.779 15.8378 41.9802 16.079 42.0914 16.3643C42.2026 16.6495 42.2177 16.9633 42.1343 17.2579C42.0509 17.5525 41.8737 17.8119 41.6295 17.9966C41.3853 18.1813 41.0874 18.2812 40.7812 18.2812H36.5625V29.5312H39.375C39.748 29.5312 40.1056 29.6794 40.3694 29.9431C40.6331 30.2069 40.7812 30.5645 40.7812 30.9375C40.7812 31.3105 40.6331 31.6681 40.3694 31.9319C40.1056 32.1956 39.748 32.3438 39.375 32.3438H5.625C5.25204 32.3438 4.89435 32.1956 4.63063 31.9319C4.36691 31.6681 4.21875 31.3105 4.21875 30.9375C4.21875 30.5645 4.36691 30.2069 4.63063 29.9431C4.89435 29.6794 5.25204 29.5312 5.625 29.5312H8.4375V18.2812H4.21875C3.91256 18.2813 3.61474 18.1813 3.37053 17.9966C3.12632 17.812 2.94907 17.5526 2.86572 17.258ZM25.3125 28.125C25.3125 28.498 25.4607 28.8556 25.7244 29.1194C25.9881 29.3831 26.3458 29.5312 26.7188 29.5312C27.0917 29.5312 27.4494 29.3831 27.7131 29.1194C27.9768 28.8556 28.125 28.498 28.125 28.125V19.6875C28.125 19.3145 27.9768 18.9569 27.7131 18.6931C27.4494 18.4294 27.0917 18.2812 26.7188 18.2812C26.3458 18.2812 25.9881 18.4294 25.7244 18.6931C25.4607 18.9569 25.3125 19.3145 25.3125 19.6875V28.125ZM16.875 28.125C16.875 28.498 17.0232 28.8556 17.2869 29.1194C17.5506 29.3831 17.9083 29.5312 18.2812 29.5312C18.6542 29.5312 19.0119 29.3831 19.2756 29.1194C19.5393 28.8556 19.6875 28.498 19.6875 28.125V19.6875C19.6875 19.3145 19.5393 18.9569 19.2756 18.6931C19.0119 18.4294 18.6542 18.2812 18.2812 18.2812C17.9083 18.2812 17.5506 18.4294 17.2869 18.6931C17.0232 18.9569 16.875 19.3145 16.875 19.6875V28.125Z" fill="#E5383B"/>
</g>
<defs>
<clipPath id="clip0_1648_17884">
<rect width="45" height="45" fill="white"/>
</clipPath>
</defs>
</svg>
