<svg width="18" height="18" viewBox="0 0 18 18" fill="none" xmlns="http://www.w3.org/2000/svg">
<path d="M6.59472 16.9039V14.1437C6.59471 13.4443 7.12688 12.876 7.78605 12.8716H10.2064C10.8685 12.8716 11.4053 13.4411 11.4053 14.1437V16.8959C11.4053 17.5025 11.8665 17.9955 12.4383 18H14.0895C14.8607 18.0021 15.6011 17.6785 16.1471 17.1006C16.6931 16.5227 17 15.7381 17 14.9197V7.07925C17 6.41824 16.7238 5.79123 16.246 5.36714L10.6362 0.606841C9.65559 -0.225789 8.25505 -0.198892 7.30349 0.670845L1.81433 5.36714C1.31389 5.77873 1.01478 6.4076 1 7.07925V14.9117C1 16.6173 2.30306 18 3.91046 18H5.52403C5.7993 18.0021 6.06399 17.8875 6.25935 17.6818C6.4547 17.476 6.56457 17.196 6.56456 16.9039H6.59472Z" fill="currentColor"/>
</svg>
