<svg width="17" height="16" viewBox="0 0 17 16" fill="none" xmlns="http://www.w3.org/2000/svg">
<path d="M1.8303 0.27289C4.05353 0.0909633 6.27677 0 8.5 0C10.7232 0 12.9465 0.0909637 15.1697 0.272891C15.9909 0.340112 16.6426 0.952153 16.7157 1.72494C16.9052 3.72745 17 5.81913 17 8C17 10.1809 16.9052 12.2725 16.7157 14.2751C16.6426 15.0479 15.991 15.6599 15.1697 15.7271C12.9465 15.909 10.7232 16 8.5 16C6.27676 16 4.05352 15.909 1.83028 15.7271C1.00905 15.6599 0.357387 15.0478 0.284256 14.2751C0.0947519 12.2726 0 10.1809 0 8C0 5.81914 0.0947515 3.72746 0.284255 1.72495C0.357368 0.952148 1.00905 0.340093 1.8303 0.27289ZM4.25 5.6H12.75C13.2194 5.6 13.6 5.24183 13.6 4.8C13.6 4.35817 13.2194 4 12.75 4H4.25C3.78056 4 3.4 4.35817 3.4 4.8C3.4 5.24183 3.78056 5.6 4.25 5.6ZM4.25 8.8H12.75C13.2194 8.8 13.6 8.44183 13.6 8C13.6 7.55817 13.2194 7.2 12.75 7.2H4.25C3.78056 7.2 3.4 7.55817 3.4 8C3.4 8.44183 3.78056 8.8 4.25 8.8ZM4.25 12H8.5C8.96944 12 9.35 11.6418 9.35 11.2C9.35 10.7582 8.96944 10.4 8.5 10.4H4.25C3.78056 10.4 3.4 10.7582 3.4 11.2C3.4 11.6418 3.78056 12 4.25 12Z" fill="currentColor"/>
</svg>
