<svg width="23" height="23" viewBox="0 0 22.9451 22.9412" fill="none" xmlns="http://www.w3.org/2000/svg">
<g>
<path d="M6.31539 5.39011C6.57563 4.64778 7.62545 4.64778 7.88569 5.39011L9.33481 9.52369C9.41074 9.74026 9.57275 9.91586 9.78253 10.0089L13.7065 11.75C14.3659 12.0426 14.3659 12.9784 13.7065 13.271L9.78253 15.012C9.57275 15.1051 9.41074 15.2807 9.33481 15.4973L7.88569 19.6309C7.62545 20.3732 6.57563 20.3732 6.31539 19.6309L4.86627 15.4973C4.79035 15.2807 4.62833 15.1051 4.41855 15.012L0.494571 13.271C-0.164856 12.9784 -0.164858 12.0426 0.494569 11.75L4.41855 10.0089C4.62833 9.91586 4.79035 9.74026 4.86627 9.52369L6.31539 5.39011Z" fill="currentColor"/>
<path d="M16.4917 0.343204C16.6572 -0.114402 17.3043 -0.114401 17.4698 0.343205L18.522 3.25377C18.5709 3.38893 18.6735 3.49784 18.8055 3.55464L21.5906 4.75288C22.0099 4.93329 22.0099 5.52781 21.5906 5.70821L18.8055 6.90646C18.6735 6.96326 18.5709 7.07217 18.522 7.20733L17.4698 10.1179C17.3043 10.5755 16.6572 10.5755 16.4917 10.1179L15.4395 7.20733C15.3906 7.07217 15.288 6.96326 15.156 6.90646L12.371 5.70821C11.9517 5.52781 11.9517 4.93329 12.371 4.75288L15.156 3.55464C15.288 3.49784 15.3906 3.38893 15.4395 3.25377L16.4917 0.343204Z" fill="currentColor"/>
<path d="M17.5317 12.8232C17.6972 12.3656 18.3443 12.3656 18.5098 12.8232L19.562 15.7338C19.6109 15.8689 19.7135 15.9778 19.8455 16.0346L22.6306 17.2329C23.0499 17.4133 23.0499 18.0078 22.6306 18.1882L19.8455 19.3865C19.7135 19.4433 19.6109 19.5522 19.562 19.6873L18.5098 22.5979C18.3443 23.0555 17.6972 23.0555 17.5317 22.5979L16.4795 19.6873C16.4306 19.5522 16.328 19.4433 16.196 19.3865L13.411 18.1882C12.9917 18.0078 12.9917 17.4133 13.411 17.2329L16.196 16.0346C16.328 15.9778 16.4306 15.8689 16.4795 15.7338L17.5317 12.8232Z" fill="currentColor"/>
</g>
</svg>
