<svg width="25" height="25" viewBox="0 0 25 25" fill="none" xmlns="http://www.w3.org/2000/svg">
<path d="M10.3018 0.25C15.8288 0.250204 20.3525 4.72845 20.3525 10.209C20.3524 12.3976 19.6314 14.4156 18.418 16.0664L24.2686 21.873H24.2676C24.6041 22.1935 24.75 22.6283 24.75 23.0605C24.75 23.9985 24.0595 24.75 23.085 24.75C22.63 24.7499 22.1955 24.5888 21.8643 24.2607L15.9688 18.4209C14.3557 19.5135 12.4086 20.1669 10.3018 20.167C4.77468 20.167 0.250226 15.6895 0.25 10.209C0.25 4.71528 4.78771 0.25 10.3018 0.25ZM10.3018 2.8457C6.23153 2.8457 2.86621 6.18306 2.86621 10.209C2.86644 14.2347 6.23167 17.5713 10.3018 17.5713C14.3717 17.5711 17.7371 14.2346 17.7373 10.209C17.7373 6.18319 14.3718 2.84591 10.3018 2.8457Z" fill="#1E1E1E" stroke="#1E1E1E" stroke-width="0.5"/>
</svg>
