<svg width="29" height="29" viewBox="0 0 29 29" fill="none" xmlns="http://www.w3.org/2000/svg">
<path d="M21.0723 14.5352C21.3225 13.8216 22.3316 13.8217 22.582 14.5352L23.9756 18.5098C24.0486 18.718 24.2045 18.8871 24.4062 18.9766L28.1797 20.6504C28.8135 20.9318 28.8135 21.8319 28.1797 22.1133L24.4062 23.7871C24.2045 23.8766 24.0486 24.0457 23.9756 24.2539L22.582 28.2285C22.3317 28.942 21.3225 28.9422 21.0723 28.2285L19.6787 24.2539C19.6057 24.0458 19.4506 23.8766 19.249 23.7871L15.4756 22.1133C14.8415 21.832 14.8415 20.9317 15.4756 20.6504L19.249 18.9766C19.4506 18.887 19.6057 18.7179 19.6787 18.5098L21.0723 14.5352ZM21.333 0C22.7475 0 24.1043 0.562306 25.1045 1.5625C26.1045 2.5626 26.6669 3.91871 26.667 5.33301V13.333H24V5.33301C23.9999 4.62588 23.7188 3.94729 23.2188 3.44727C22.7187 2.94737 22.0401 2.66699 21.333 2.66699H5.33301C4.62588 2.66708 3.94729 2.94725 3.44727 3.44727C2.94725 3.94729 2.66708 4.62588 2.66699 5.33301V21.333C2.66699 22.0401 2.94737 22.7187 3.44727 23.2188C3.94729 23.7188 4.62588 23.9999 5.33301 24H13.333V26.667H5.33301C3.91871 26.6669 2.5626 26.1045 1.5625 25.1045C0.562306 24.1043 0 22.7475 0 21.333V5.33301C8.62435e-05 3.91864 0.562383 2.56262 1.5625 1.5625C2.56262 0.562383 3.91864 8.62436e-05 5.33301 0H21.333ZM13.333 8C14.7475 8 16.1043 8.56231 17.1045 9.5625C18.1045 10.5626 18.6669 11.9187 18.667 13.333C18.667 14.7475 18.1047 16.1043 17.1045 17.1045C16.1043 18.1047 14.7475 18.667 13.333 18.667C11.9187 18.6669 10.5626 18.1045 9.5625 17.1045C8.56231 16.1043 8 14.7475 8 13.333C8.00009 11.9186 8.56238 10.5626 9.5625 9.5625C10.5626 8.56238 11.9186 8.00009 13.333 8Z" fill="#F5F3F4"/>
</svg>
