<svg width="135" height="75" viewBox="0 0 66 36" fill="none" xmlns="http://www.w3.org/2000/svg">
<g id="Logo 1">
<path id="Vector" d="M2.31622 19.5429V3.08571H14.0037V6.31607H6.36756V9.69107H13.4063V12.9295H6.36756V16.3125H14.0037V19.5429H2.31622ZM15.5735 6.31607V3.08571H29.741V6.31607H24.6583V19.5429H20.6643V6.31607H15.5735ZM45.5661 3.08571V19.5429H42.1286L35.4582 10.0446H35.3518V19.5429H31.3005V3.08571H34.7871L41.3838 12.5678H41.5229V3.08571H45.5661ZM51.3202 19.5429H46.966L52.6216 3.08571H58.0152L63.6707 19.5429H59.3165L55.3798 7.23214H55.2488L51.3202 19.5429ZM50.7391 13.066H59.8403V16.0875H50.7391V13.066Z" fill="white"/>
<path id="Vector_2" d="M7.125 25.0597C7.0625 24.5415 6.80903 24.1393 6.36458 23.8529C5.92014 23.5665 5.375 23.4233 4.72916 23.4233C4.25695 23.4233 3.84375 23.4983 3.48959 23.6484C3.13889 23.7984 2.86459 24.0046 2.66666 24.2671C2.47222 24.5296 2.375 24.828 2.375 25.162C2.375 25.4415 2.44271 25.6819 2.57813 25.8831C2.71701 26.0808 2.8941 26.2461 3.10938 26.3791C3.32465 26.5087 3.55035 26.616 3.78646 26.7012C4.02257 26.7831 4.23959 26.8495 4.4375 26.9006L5.52084 27.187C5.79861 27.2586 6.10764 27.3574 6.44792 27.4836C6.79166 27.6097 7.11979 27.7819 7.43229 28.0001C7.74826 28.2148 8.00868 28.491 8.21354 28.8285C8.4184 29.166 8.52083 29.5802 8.52083 30.0711C8.52083 30.637 8.3698 31.1483 8.0677 31.6052C7.7691 32.062 7.33159 32.4251 6.7552 32.6944C6.18229 32.9638 5.48611 33.0984 4.66667 33.0984C3.90278 33.0984 3.24132 32.9773 2.68229 32.7353C2.12674 32.4933 1.68923 32.1557 1.36979 31.7228C1.05382 31.2899 0.875 30.787 0.833334 30.2143H2.16666C2.20139 30.6098 2.33681 30.9371 2.57292 31.1961C2.8125 31.4518 3.11458 31.6427 3.47916 31.7689C3.84722 31.8916 4.24306 31.9529 4.66667 31.9529C5.15972 31.9529 5.60243 31.8745 5.99479 31.7176C6.38715 31.5575 6.69792 31.3358 6.92709 31.0529C7.15625 30.7665 7.27083 30.4324 7.27083 30.0506C7.27083 29.7029 7.17187 29.4199 6.97396 29.2018C6.77604 28.9836 6.51562 28.8064 6.19271 28.67C5.86979 28.5336 5.52084 28.4143 5.14583 28.312L3.83333 27.9438C3 27.7086 2.34028 27.3729 1.85417 26.9364C1.36805 26.5001 1.125 25.9291 1.125 25.2233C1.125 24.6371 1.28646 24.1257 1.60937 23.6892C1.93576 23.2495 2.37327 22.9087 2.92187 22.6665C3.47396 22.4211 4.09028 22.2984 4.77084 22.2984C5.45834 22.2984 6.06944 22.4194 6.60417 22.6615C7.13888 22.9001 7.5625 23.2273 7.875 23.6433C8.19098 24.0592 8.35764 24.5313 8.375 25.0597H7.125ZM12.7398 32.9143V22.4416H16.3439C17.1807 22.4416 17.8647 22.5899 18.396 22.8864C18.9308 23.1796 19.3266 23.5768 19.5836 24.0779C19.8404 24.5791 19.969 25.1382 19.969 25.7552C19.969 26.3723 19.8404 26.933 19.5836 27.4376C19.33 27.9422 18.9377 28.3444 18.4065 28.6444C17.8752 28.941 17.1947 29.0892 16.3648 29.0892H13.7814V27.9643H16.3231C16.896 27.9643 17.3561 27.8671 17.7033 27.6728C18.0506 27.4785 18.3022 27.216 18.4585 26.8853C18.6183 26.5512 18.6981 26.1745 18.6981 25.7552C18.6981 25.3359 18.6183 24.9609 18.4585 24.6302C18.3022 24.2995 18.0488 24.0404 17.6981 23.8529C17.3474 23.662 16.8822 23.5665 16.3023 23.5665H14.0314V32.9143H12.7398ZM23.4939 32.9143H22.1396L26.0564 22.4416H27.3897L31.3063 32.9143H29.9522L26.7647 24.0984H26.6814L23.4939 32.9143ZM23.9938 28.8233H29.4522V29.9484H23.9938V28.8233ZM35.0631 32.9143V22.4416H38.6672C39.5006 22.4416 40.1846 22.5814 40.7193 22.8609C41.254 23.137 41.6499 23.5172 41.9069 24.0012C42.1637 24.4853 42.2923 25.0358 42.2923 25.6529C42.2923 26.2699 42.1637 26.8171 41.9069 27.2944C41.6499 27.7716 41.2558 28.1467 40.7245 28.4194C40.1933 28.6887 39.5144 28.8233 38.688 28.8233H35.7714V27.6779H38.6464C39.2158 27.6779 39.6742 27.5961 40.0214 27.4325C40.3721 27.2689 40.6255 27.037 40.7818 26.737C40.9416 26.4336 41.0214 26.0722 41.0214 25.6529C41.0214 25.2336 40.9416 24.8672 40.7818 24.5534C40.6221 24.2398 40.3669 23.9978 40.0162 23.8274C39.6655 23.6534 39.2019 23.5665 38.6256 23.5665H36.3547V32.9143H35.0631ZM40.0839 28.2097L42.7089 32.9143H41.2089L38.6256 28.2097H40.0839ZM46.5398 32.9143V22.4416H52.9773V23.5665H47.8315V27.1052H52.644V28.2302H47.8315V31.7892H53.0606V32.9143H46.5398ZM63.234 25.0597C63.1715 24.5415 62.918 24.1393 62.4736 23.8529C62.0291 23.5665 61.484 23.4233 60.8382 23.4233C60.3659 23.4233 59.9527 23.4983 59.5986 23.6484C59.2479 23.7984 58.9736 24.0046 58.7756 24.2671C58.5812 24.5296 58.484 24.828 58.484 25.162C58.484 25.4415 58.5517 25.6819 58.6871 25.8831C58.826 26.0808 59.0031 26.2461 59.2183 26.3791C59.4336 26.5087 59.6594 26.616 59.8954 26.7012C60.1315 26.7831 60.3486 26.8495 60.5465 26.9006L61.6299 27.187C61.9076 27.2586 62.2166 27.3574 62.5569 27.4836C62.9006 27.6097 63.2288 27.7819 63.5413 28.0001C63.8573 28.2148 64.1176 28.491 64.3225 28.8285C64.5274 29.166 64.6298 29.5802 64.6298 30.0711C64.6298 30.637 64.4787 31.1483 64.1767 31.6052C63.8781 32.062 63.4406 32.4251 62.8642 32.6944C62.2913 32.9638 61.5951 33.0984 60.7756 33.0984C60.0118 33.0984 59.3503 32.9773 58.7913 32.7353C58.2358 32.4933 57.7982 32.1557 57.4788 31.7228C57.1628 31.2899 56.984 30.787 56.9423 30.2143H58.2757C58.3104 30.6098 58.4458 30.9371 58.682 31.1961C58.9215 31.4518 59.2236 31.6427 59.5881 31.7689C59.9562 31.8916 60.3521 31.9529 60.7756 31.9529C61.2687 31.9529 61.7115 31.8745 62.1038 31.7176C62.4961 31.5575 62.807 31.3358 63.0361 31.0529C63.2653 30.7665 63.3798 30.4324 63.3798 30.0506C63.3798 29.7029 63.2809 29.4199 63.083 29.2018C62.885 28.9836 62.6247 28.8064 62.3017 28.67C61.9788 28.5336 61.6299 28.4143 61.2548 28.312L59.9423 27.9438C59.109 27.7086 58.4493 27.3729 57.9632 26.9364C57.4771 26.5001 57.234 25.9291 57.234 25.2233C57.234 24.6371 57.3955 24.1257 57.7184 23.6892C58.0448 23.2495 58.4823 22.9087 59.0309 22.6665C59.5829 22.4211 60.1992 22.2984 60.8799 22.2984C61.5673 22.2984 62.1785 22.4194 62.7132 22.6615C63.2479 22.9001 63.6715 23.2273 63.984 23.6433C64.2999 24.0592 64.4666 24.5313 64.484 25.0597H63.234Z" fill="white"/>
</g>
</svg>
