<svg preserveAspectRatio="none" width="100%" height="100%" overflow="visible" style="display: block;" viewBox="0 0 14.4494 14.1282" fill="none" xmlns="http://www.w3.org/2000/svg">
<g id="Group">
<g id="Group_2">
<path id="Vector" d="M1.85158 8.46255L2.23427e-05 5.2712H6.20818L5.19164 7.02824H7.26103L8.27757 8.78527H2.50507C2.21463 8.82113 1.9605 8.6777 1.85158 8.46255Z" fill="var(--fill-0, #F99E20)"/>
<path id="Vector_2" d="M5.15534 7.06395H9.29411L12.38 1.75697H8.67692C8.42279 1.75697 8.16866 1.90041 8.05974 2.11555L5.15534 7.06395Z" fill="var(--fill-0, #A0237E)"/>
<path id="Vector_3" d="M4.1025 5.27111H6.17189L7.18843 3.51408L5.11905 0L3.26749 3.19136C3.12227 3.4065 3.12227 3.69337 3.26749 3.90851L4.1025 5.27111Z" fill="var(--fill-0, #E12826)"/>
<path id="Vector_4" d="M2.06943 12.3351H5.77254C6.02667 12.3351 6.28081 12.1917 6.38972 11.9766L7.22474 10.5781L6.2082 8.82106H4.13881L2.06943 12.3351Z" fill="var(--fill-0, #A0237E)"/>
<path id="Vector_5" d="M6.1719 8.82119L9.25783 14.1282L11.1094 10.9368C11.2546 10.7217 11.2546 10.4348 11.1094 10.2196L10.2744 8.82119L8.20499 5.30711L7.18844 7.06415L8.20499 8.82119H6.1719Z" fill="var(--fill-0, #E12826)"/>
<path id="Vector_6" d="M10.3106 8.82113H14.4494L12.5978 5.62978C12.4526 5.41463 12.2348 5.2712 11.9807 5.2712H10.3469L9.33039 7.02824L10.3106 8.82113Z" fill="var(--fill-0, #F99E20)"/>
</g>
<path id="Vector_7" d="M5.15533 7.06409L8.24125 5.2712L7.22471 7.06409H5.15533Z" fill="var(--fill-0, #712878)"/>
<path id="Vector_8" d="M8.24122 8.82113V5.2712L7.22468 7.06409L8.24122 8.82113Z" fill="var(--fill-0, #AC1F2D)"/>
<path id="Vector_9" d="M5.15533 7.06381L8.24125 8.82085L7.22471 7.06381H5.15533Z" fill="var(--fill-0, #F05023)"/>
</g>
</svg>
