<svg preserveAspectRatio="none" width="100%" height="100%" overflow="visible" style="display: block;" viewBox="0 0 44.5486 30" fill="none" xmlns="http://www.w3.org/2000/svg">
<path id="Vector" d="M43.3596 0.732845C42.9101 0.263001 42.4088 0.0221312 41.8187 0.00131533C40.5927 -0.0403165 38.9602 0.90532 36.6856 2.98096C32.9772 6.36503 27.7309 11.9318 24.1723 15.9463L24.1356 15.9879L24.1754 16.0266C24.6064 16.4489 25.062 16.8711 25.5328 17.2845L25.5756 17.3231L25.6184 17.2815C29.8129 13.2016 35.1631 8.36931 38.3426 5.78814C39.5044 4.84547 40.2779 4.49458 40.7089 4.71166C41.1125 4.91387 41.2562 5.62161 41.1522 6.87056C40.9352 9.45768 40.1097 13.1837 38.8837 17.0971C37.7617 20.6745 36.4532 23.9396 35.4627 25.6108C34.8421 26.6635 34.1909 27.2285 33.4755 27.3385C32.6653 27.4634 31.7329 27.0382 30.5375 25.9974C28.5503 24.2637 25.4991 21.0908 20.5617 15.8422L19.9258 15.1672C15.5723 10.5401 11.4634 6.1658 7.85887 2.98096C6.1407 1.46438 4.84748 0.587134 3.78662 0.227317C2.71353 -0.135475 1.8575 0.0369995 1.16656 0.762582C0.0353857 1.95206 -0.270338 4.06042 0.237164 7.20659C0.726322 10.2517 1.73215 14.2572 2.92448 17.9238C4.30329 22.1643 5.81969 25.6019 7.19544 27.6032C8.17682 29.0306 9.20405 29.8008 10.3413 29.9673C10.4942 29.9881 10.6471 30 10.803 30C11.9219 30 13.1693 29.4409 14.597 28.299C16.4375 26.83 18.6601 24.6236 20.2009 23.0326L20.2407 22.991L20.2009 22.9494C19.776 22.5093 19.3388 22.0691 18.8986 21.6469L18.8558 21.6052L18.813 21.6469C17.0642 23.3746 14.6368 25.59 13.0745 26.6249C12.1421 27.2434 11.4634 27.4605 10.8825 27.3296C10.268 27.1928 9.69627 26.6457 9.08482 25.6138C8.09427 23.9396 6.78577 20.6774 5.66377 17.1001C4.43781 13.1867 3.61236 9.46065 3.39529 6.87354C3.29135 5.63945 3.4381 4.91387 3.83248 4.72058C4.22686 4.52431 4.92391 4.8425 5.90223 5.66324C8.21045 7.60507 12.4478 11.795 16.1868 15.4913C16.5995 15.9017 17.0092 16.3061 17.4127 16.7016C21.6898 20.9272 26.0678 25.2361 28.483 27.401C30.137 28.8849 31.5922 29.8929 33.3012 29.9792C34.8971 30.0595 36.1873 29.3071 37.3551 27.6032C38.7309 25.6019 40.2473 22.1643 41.6261 17.9238C42.8184 14.2572 43.8243 10.2487 44.3134 7.20659C44.8209 4.05744 44.5091 1.94017 43.3596 0.732845Z" fill="var(--fill-0, black)"/>
</svg>
