<svg preserveAspectRatio="none" width="100%" height="100%" overflow="visible" style="display: block;" viewBox="0 0 48.5989 23" fill="none" xmlns="http://www.w3.org/2000/svg">
<g id="Container">
<path id="Vector" d="M0.00348129 1.75383e-10C4.04988 0.0055543 8.09627 0.0033326 12.1427 0.00111089C12.1485 1.17196 12.1345 2.34391 12.1496 3.51587C10.988 3.51476 9.82646 3.5192 8.66488 3.51365C8.66023 6.3419 8.66023 9.17126 8.66488 11.9995C6.9811 11.9995 5.29733 12.0006 3.61472 11.9995C3.63793 9.82 3.60311 7.63827 3.6298 5.45876C3.56482 4.80669 3.70523 4.15017 3.59847 3.50365C2.39975 3.53364 1.19988 3.50698 0 3.51698C0.00812296 2.34502 0.00232087 1.17196 0.00348129 1.75383e-10Z" fill="var(--fill-0, #1467B3)"/>
<path id="Vector_2" d="M15.644 0.0378388C17.2454 -0.0365086 18.8523 0.0256325 20.457 0.00343926C20.5957 -0.0143153 20.6871 0.0433871 20.7312 0.176547C22.261 4.11585 23.7666 8.06625 25.3118 12C23.7588 11.9834 22.2048 11.9878 20.6508 11.9978C19.8094 9.63198 19.0263 7.24621 18.1837 4.88041C17.3401 7.234 16.5636 9.61312 15.7574 11.9811C14.2177 12.0033 12.678 11.9834 11.1372 11.9911C12.6505 8.01187 14.1649 4.0304 15.644 0.0378388Z" fill="var(--fill-0, #1467B3)"/>
<path id="Vector_3" d="M23.2894 0.00269753C26.7337 0.00269753 30.1779 0.0071381 33.621 0.0071381C34.2258 0.0071381 34.833 -0.0183951 35.4367 0.0271207C35.4251 1.19166 35.4274 2.3562 35.4344 3.52074C34.27 3.51075 33.1045 3.52074 31.939 3.51519C31.9448 6.34272 31.9343 9.17025 31.9448 11.9967C30.2593 11.9956 28.5739 11.99 26.8895 12C26.9035 9.17247 26.8872 6.34494 26.8977 3.5163C25.6938 3.51852 24.491 3.51186 23.2871 3.52074C23.2918 2.34843 23.2871 1.17501 23.2894 0.00269753Z" fill="var(--fill-0, #1467B3)"/>
<path id="Vector_4" d="M38.9333 0.0462835C39.7088 -0.0513884 40.4943 0.0429538 41.2753 0.00632684C42.1764 0.028525 43.082 -0.0425091 43.9809 0.0451736C45.5022 4.0353 47.0445 8.01765 48.5989 11.9945C47.039 11.9945 45.4802 11.9967 43.9214 11.9933C43.1712 9.76464 42.3912 7.54483 41.6344 5.31835C41.5849 5.19071 41.5562 5.02866 41.402 4.99315C40.6441 7.33394 39.8123 9.65032 39.0489 11.9889C37.5067 12.0067 35.9655 11.9845 34.4243 12C35.9357 8.01876 37.4483 4.03751 38.9333 0.0462835Z" fill="var(--fill-0, #1467B3)"/>
<path id="Vector_5" d="M14.8381 14.0176C15.8899 13.9259 17.0071 14.1887 17.8109 14.891C18.814 15.7578 19.2704 17.1206 19.2349 18.4131C19.2638 19.5132 18.9918 20.6542 18.3112 21.5415C17.7059 22.3551 16.7251 22.8503 15.7196 22.9591C14.6007 23.1098 13.3793 22.8503 12.5367 22.0751C11.5518 21.2083 11.121 19.8627 11.1383 18.5858C11.1127 17.3163 11.5245 15.9894 12.4556 15.0858C13.0866 14.4596 13.9524 14.0929 14.8381 14.0176ZM14.7826 15.5998C14.3063 15.7054 13.9094 16.0336 13.6539 16.4372C13.2627 17.0486 13.1395 17.7877 13.1213 18.5007C13.1337 19.2357 13.2685 19.9977 13.687 20.6198C14.0078 21.0995 14.5577 21.4621 15.1548 21.4375C15.7584 21.4768 16.3389 21.1379 16.6614 20.6427C17.1923 19.8455 17.2709 18.8469 17.1923 17.9187C17.1113 17.2033 16.8599 16.4634 16.3092 15.9673C15.9023 15.5982 15.3127 15.4877 14.7826 15.5998Z" fill="var(--fill-0, #1467B3)"/>
<path id="Vector_6" d="M30.0218 14.0177C31.072 13.926 32.1875 14.1871 32.9921 14.8861C34.0002 15.7529 34.4583 17.1198 34.4219 18.4164C34.4508 19.5156 34.1771 20.6566 33.4974 21.5431C32.8921 22.3542 31.9138 22.8494 30.9099 22.9591C29.7903 23.1097 28.5672 22.851 27.7238 22.0751C26.7389 21.2091 26.3089 19.8635 26.3254 18.5874C26.299 17.3187 26.7108 15.9936 27.6394 15.0883C28.2704 14.4621 29.1353 14.0938 30.0218 14.0177ZM29.9656 15.6007C29.4893 15.7071 29.0932 16.0369 28.8385 16.4413C28.449 17.0519 28.3266 17.7894 28.3084 18.5007C28.3208 19.2349 28.4548 19.9953 28.8724 20.6173C29.1924 21.097 29.7415 21.4604 30.3377 21.4375C30.9645 21.48 31.5615 21.115 31.8807 20.5936C32.3967 19.7775 32.4629 18.7716 32.3703 17.8368C32.2752 17.1313 32.0122 16.4028 31.4507 15.9297C31.0455 15.5876 30.4774 15.4926 29.9656 15.6007Z" fill="var(--fill-0, #1467B3)"/>
<path id="Vector_7" d="M45.0286 14.0887C46.1028 13.9012 47.2428 14.0093 48.2442 14.4292C48.0959 14.9539 47.9321 15.4754 47.802 16.0042C47.1041 15.6981 46.3169 15.5171 45.5479 15.6301C45.1482 15.6899 44.7009 15.9453 44.674 16.3644C44.6237 16.655 44.7902 16.935 45.0381 17.0987C45.7395 17.5522 46.6013 17.7085 47.3113 18.149C47.7838 18.4338 48.2069 18.8284 48.4106 19.3302C48.7912 20.261 48.5944 21.4152 47.8185 22.1167C47.1761 22.716 46.2528 22.9468 45.3737 22.9943C44.4 23.0328 43.403 22.8789 42.5239 22.4704C42.6548 21.9293 42.7918 21.3882 42.9297 20.8479C43.625 21.2015 44.4113 21.3857 45.2003 21.4005C45.6112 21.3759 46.0768 21.3047 46.3585 20.9895C46.6438 20.6629 46.6299 20.1333 46.2987 19.8394C45.7725 19.358 45.0156 19.2533 44.3888 18.9356C43.6701 18.5984 42.9826 18.0671 42.7389 17.3189C42.5144 16.5912 42.6358 15.7537 43.1265 15.143C43.5808 14.5708 44.2943 14.2213 45.0286 14.0887Z" fill="var(--fill-0, #1467B3)"/>
<path id="Vector_8" d="M35.4448 14.1859C36.475 14.0395 37.518 13.9874 38.5602 14.0025C39.4838 14.0294 40.4781 14.1253 41.2299 14.6653C42.3804 15.4577 42.4962 17.1878 41.5028 18.1291C41.2271 18.4075 40.8825 18.6245 40.4993 18.7591C41.0056 18.9878 41.3824 19.4101 41.5726 19.8921C41.9715 20.9056 42.1066 21.9915 42.5238 23C41.7904 22.9781 41.0571 23.0101 40.3247 22.9823C40.049 22.2699 39.8633 21.5331 39.6814 20.7979C39.5711 20.3934 39.4406 19.9425 39.0564 19.6809C38.6153 19.3966 38.0474 19.4774 37.5401 19.4597C37.541 20.6381 37.5373 21.8165 37.5429 22.995C36.8408 22.9916 36.1386 22.9916 35.4365 22.995C35.4457 20.0586 35.4301 17.1222 35.4448 14.1859ZM37.5373 15.5636C37.5511 16.3804 37.5245 17.1971 37.5511 18.013C38.1871 17.9911 38.8782 18.0895 39.4489 17.7665C40.2346 17.3645 40.2833 16.1718 39.5123 15.7352C38.9186 15.4114 38.1908 15.5149 37.5373 15.5636Z" fill="var(--fill-0, #1467B3)"/>
<path id="Vector_9" d="M0.518273 14C1.35268 14.0093 2.18709 14.0008 3.0207 14.0051C3.55756 16.0697 4.17367 18.1164 4.52781 20.2285C4.60866 20.1308 4.62403 20 4.6499 19.8777C5.06145 17.8862 5.66057 15.9482 6.22978 14.0025C7.04883 14.0059 7.86788 14.0025 8.68693 14.0042C8.80821 17.0034 8.98932 19.9992 9.11222 22.9983C8.50743 22.9992 7.90265 22.9983 7.29867 22.9983C7.25178 21.1291 7.13453 19.2634 7.11351 17.3934C7.12402 16.8777 7.09492 16.3619 7.09088 15.8454C6.50226 18.2031 5.7956 20.5259 5.13421 22.8624C4.64747 22.8624 4.16073 22.8624 3.674 22.8624C3.18564 20.8462 2.61319 18.8505 2.22429 16.8088C2.15233 16.4834 2.12565 16.1453 2.01811 15.8292C1.96879 18.2209 1.83134 20.6092 1.7335 22.9983C1.1554 22.9992 0.578104 22.9975 0 23C0.172219 19.9992 0.364651 17.0008 0.518273 14Z" fill="var(--fill-0, #1467B3)"/>
<path id="Vector_10" d="M19.2373 14.0004C21.2612 13.9995 23.2851 14.0004 25.309 14.0004C25.3075 14.5664 25.302 15.1324 25.3121 15.6993C24.595 15.718 23.8787 15.7019 23.1616 15.7078C23.1631 18.1386 23.1592 20.5693 23.1639 23C22.5649 22.9949 21.9659 22.9992 21.3676 22.9975C21.3684 20.5676 21.3676 18.1377 21.3676 15.7078C20.6591 15.7078 19.9497 15.7061 19.2412 15.7087C19.2373 15.1392 19.2427 14.5698 19.2373 14.0004Z" fill="var(--fill-0, #1467B3)"/>
</g>
</svg>
