<svg preserveAspectRatio="none" width="100%" height="100%" overflow="visible" style="display: block;" viewBox="0 0 45.5611 29" fill="none" xmlns="http://www.w3.org/2000/svg">
<path id="Vector" d="M32.9114 1.42335C26.2948 -0.474451 19.2675 -0.474451 12.6509 1.42335C5.15222 3.80266 0 8.74376 0 14.4539C0 22.4867 10.1992 29 22.7819 29C35.3646 29 45.5611 22.4867 45.5611 14.4539C45.5611 8.74376 40.4089 3.80415 32.9114 1.42335ZM22.7819 22.7457C20.9039 22.7457 19.3707 19.1023 19.2808 14.5235C20.4098 14.6238 21.5811 14.6777 22.7819 14.6777C23.9827 14.6777 25.1519 14.6238 26.2824 14.5235C26.1919 19.1023 24.659 22.7457 22.7819 22.7457ZM19.5173 10.9391C20.0301 7.72381 21.2969 5.449 22.7819 5.449C24.2668 5.449 25.5325 7.72529 26.0441 10.9391C25.001 11.0323 23.9085 11.0838 22.7819 11.0838C21.6553 11.0838 20.5619 11.0323 19.5173 10.9391ZM28.0394 10.6967C27.2772 5.65263 25.2116 2.03664 22.7819 2.03664C20.3522 2.03664 18.2845 5.65263 17.5229 10.6967C12.8952 9.98373 9.66076 8.36091 9.66076 6.46925C9.66076 3.92204 15.5354 1.85712 22.7819 1.85712C30.0284 1.85712 35.903 3.92204 35.903 6.46925C35.903 8.35972 32.6686 9.98224 28.0409 10.6967M3.32491 13.9224C3.32491 11.4598 4.28503 9.15222 5.96061 7.16679C5.94103 7.30489 5.93094 7.44414 5.93044 7.58359C5.93044 10.6813 10.645 13.3145 17.2179 14.2821C17.2128 14.5158 17.2089 14.7504 17.2089 14.9871C17.2089 20.7469 18.8275 25.6257 21.0653 27.3075C11.1228 26.7076 3.32432 20.9454 3.32432 13.9224M24.4964 27.3075C26.7333 25.6257 28.3516 20.7475 28.3516 14.9871C28.3516 14.7504 28.3489 14.5158 28.3438 14.2821C34.9152 13.3139 39.6303 10.6798 39.6303 7.58359C39.6298 7.44414 39.6198 7.30489 39.6002 7.16679C41.2755 9.15222 42.2359 11.4598 42.2359 13.9224C42.2359 20.9454 34.4371 26.7076 24.4964 27.3075Z" fill="var(--fill-0, #E5383B)"/>
</svg>
