<svg preserveAspectRatio="none" width="100%" height="100%" overflow="visible" style="display: block;" viewBox="0 0 47.7048 9.43066" fill="none" xmlns="http://www.w3.org/2000/svg">
<g id="XMLID_68_">
<path id="XMLID_73_" d="M12.017 2.92239e-05V7.24333C11.545 7.31505 11.2546 7.3509 10.8552 7.3509C9.80238 7.3509 9.14889 6.92061 9.14889 5.34286V2.92239e-05H6.53493V5.34286C6.53493 8.28321 8.42279 9.43066 10.8915 9.43066C12.5616 9.43066 13.5418 9.17966 14.7036 8.7135V2.92239e-05H12.017Z" fill="var(--fill-0, #E12826)"/>
<path id="XMLID_72_" d="M0 9.21549V0H2.61396V7.06401H5.95402V9.21549H0Z" fill="var(--fill-0, #E12826)"/>
<path id="XMLID_71_" d="M28.0274 9.21552C27.8459 4.98428 27.265 2.65352 25.6313 2.92239e-05H23.4167C23.0537 0.537898 21.9645 2.07979 21.783 3.29896H21.7104C21.5288 2.07979 20.4397 0.537898 20.0766 2.92239e-05H17.862C16.2283 2.65352 15.6474 5.02014 15.4659 9.21552H18.2251C18.2251 7.92463 18.1162 5.19943 19.3142 2.90452C20.004 3.80097 20.4034 5.95244 20.4034 7.56605V9.21552H23.1263V7.56605C23.1263 5.91659 23.5256 3.80097 24.2154 2.90452C25.3772 5.19943 25.3046 7.92463 25.3046 9.21552H28.0274Z" fill="var(--fill-0, #E12826)"/>
<path id="XMLID_70_" d="M44.8367 4.55399L47.5959 2.92239e-05H44.4374L43.1667 2.47423C43.0941 2.5818 43.0578 2.72523 43.0215 2.86866H42.9852C42.9489 2.72523 42.9126 2.5818 42.8399 2.47423L41.5693 2.92239e-05H38.447L41.1699 4.51813L38.084 9.21552H41.2425L42.7673 6.4186C42.8399 6.31103 42.8762 6.20345 42.9126 6.09588H42.9489C42.9852 6.20345 43.0215 6.31103 43.0578 6.4186L44.5826 9.21552H47.7048L44.8367 4.55399Z" fill="var(--fill-0, #E12826)"/>
<path id="XMLID_69_" d="M31.5127 2.92239e-05C28.7536 3.33482 28.7173 8.67765 28.6809 9.21552H31.549C31.549 5.66558 32.3478 3.04795 33.1102 2.1515C33.8726 3.0121 34.6713 5.66558 34.6713 9.21552H37.5394C37.5031 8.67765 37.4668 3.33482 34.7076 2.92239e-05H31.5127Z" fill="var(--fill-0, #E12826)"/>
</g>
</svg>
